<svg width="28" height="33" viewBox="0 0 28 33" fill="none" xmlns="http://www.w3.org/2000/svg">
<path d="M25.5268 16.3293V6.74622C25.5268 6.50229 25.43 6.26835 25.2575 6.09585L20.4309 1.2694C20.2585 1.0969 20.0245 1 19.7807 1H1.91976C1.41179 1 1 1.41179 1 1.91976V30.7388C1 31.2468 1.41179 31.6585 1.91976 31.6585H11.7305" stroke="#2C5282" stroke-width="2" stroke-linecap="round" stroke-linejoin="round"/>
<path d="M7.13184 13.2635H19.3953M7.13184 7.13184H13.2635M7.13184 19.3953H11.7306" stroke="#2C5282" stroke-width="2" stroke-linecap="round" stroke-linejoin="round"/>
<path d="M22.3907 23.9006L23.9236 22.3677C24.5949 21.6964 25.6833 21.6964 26.3546 22.3677C27.0258 23.039 27.0258 24.1274 26.3546 24.7986L24.8216 26.3316M22.3907 23.9006L17.8056 28.4858C17.5758 28.7156 17.4249 29.0125 17.375 29.3335L17.0029 31.7193L19.3886 31.3474C19.7098 31.2973 20.0065 31.1465 20.2363 30.9167L24.8216 26.3316M22.3907 23.9006L24.8216 26.3316" stroke="#2C5282" stroke-width="2" stroke-linecap="round" stroke-linejoin="round"/>
<path d="M19.3955 1V6.21195C19.3955 6.71992 19.8073 7.13171 20.3153 7.13171H25.5272" stroke="#2C5282" stroke-width="2" stroke-linecap="round" stroke-linejoin="round"/>
</svg>
