<svg width="40" height="40" viewBox="0 0 40 40" fill="none" xmlns="http://www.w3.org/2000/svg">
<path fill-rule="evenodd" clip-rule="evenodd" d="M20 30C25.5228 30 30 25.5228 30 20C30 14.4771 25.5228 10 20 10C14.4771 10 10 14.4771 10 20C10 25.5228 14.4771 30 20 30ZM20 26.6667C23.6818 26.6667 26.6667 23.6818 26.6667 20C26.6667 16.3181 23.6818 13.3333 20 13.3333C16.3181 13.3333 13.3333 16.3181 13.3333 20C13.3333 23.6818 16.3181 26.6667 20 26.6667Z" fill="white"/>
<path d="M30.0002 8.3335C29.0797 8.3335 28.3335 9.0797 28.3335 10.0002C28.3335 10.9206 29.0797 11.6668 30.0002 11.6668C30.9207 11.6668 31.6668 10.9206 31.6668 10.0002C31.6668 9.0797 30.9207 8.3335 30.0002 8.3335Z" fill="white"/>
<path fill-rule="evenodd" clip-rule="evenodd" d="M2.75644 7.1266C1.6665 9.26572 1.6665 12.066 1.6665 17.6665V22.3332C1.6665 27.9337 1.6665 30.734 2.75644 32.873C3.71517 34.7547 5.24497 36.2845 7.1266 37.2432C9.26572 38.3332 12.066 38.3332 17.6665 38.3332H22.3332C27.9337 38.3332 30.734 38.3332 32.873 37.2432C34.7547 36.2845 36.2845 34.7547 37.2432 32.873C38.3332 30.734 38.3332 27.9337 38.3332 22.3332V17.6665C38.3332 12.066 38.3332 9.26572 37.2432 7.1266C36.2845 5.24497 34.7547 3.71517 32.873 2.75644C30.734 1.6665 27.9337 1.6665 22.3332 1.6665H17.6665C12.066 1.6665 9.26572 1.6665 7.1266 2.75644C5.24497 3.71517 3.71517 5.24497 2.75644 7.1266ZM22.3332 4.99984H17.6665C14.8112 4.99984 12.8703 5.00244 11.37 5.125C9.90857 5.2444 9.16124 5.46082 8.6399 5.72645C7.38549 6.36562 6.36562 7.38549 5.72645 8.6399C5.46082 9.16124 5.2444 9.90857 5.125 11.37C5.00244 12.8703 4.99984 14.8112 4.99984 17.6665V22.3332C4.99984 25.1885 5.00244 27.1293 5.125 28.6297C5.2444 30.0912 5.46082 30.8385 5.72645 31.3598C6.36562 32.6142 7.38549 33.634 8.6399 34.2732C9.16124 34.5388 9.90857 34.7553 11.37 34.8747C12.8703 34.9972 14.8112 34.9998 17.6665 34.9998H22.3332C25.1885 34.9998 27.1293 34.9972 28.6297 34.8747C30.0912 34.7553 30.8385 34.5388 31.3598 34.2732C32.6142 33.634 33.634 32.6142 34.2732 31.3598C34.5388 30.8385 34.7553 30.0912 34.8747 28.6297C34.9972 27.1293 34.9998 25.1885 34.9998 22.3332V17.6665C34.9998 14.8112 34.9972 12.8703 34.8747 11.37C34.7553 9.90857 34.5388 9.16124 34.2732 8.6399C33.634 7.38549 32.6142 6.36562 31.3598 5.72645C30.8385 5.46082 30.0912 5.2444 28.6297 5.125C27.1293 5.00244 25.1885 4.99984 22.3332 4.99984Z" fill="white"/>
</svg>
