<svg width="50" height="50" viewBox="0 0 50 50" fill="none" xmlns="http://www.w3.org/2000/svg">
<path d="M39.0002 8.33307H11.1877C10.8292 8.31628 10.4709 8.37034 10.1333 8.49219C9.79577 8.61405 9.48556 8.80128 9.22043 9.04315C8.95533 9.28505 8.74052 9.57686 8.58833 9.90186C8.43614 10.2269 8.34954 10.5787 8.3335 10.9372V38.8123C8.3545 39.5625 8.66195 40.2765 9.19272 40.8071C9.7235 41.3379 10.4373 41.6454 11.1877 41.6665H39.0002C39.7295 41.634 40.4172 41.3169 40.9158 40.7833C41.4143 40.2498 41.6839 39.5423 41.6668 38.8123V10.9372C41.6729 10.5883 41.6075 10.2418 41.4747 9.91901C41.342 9.59623 41.1447 9.30396 40.895 9.06011C40.6454 8.81628 40.3485 8.62603 40.0227 8.50101C39.6968 8.37599 39.3489 8.31884 39.0002 8.33307ZM18.7502 36.1248H13.896V21.2706H18.7502V36.1248ZM16.4377 19.0206C16.0989 19.0324 15.7614 18.974 15.4463 18.8491C15.1312 18.7243 14.8453 18.5356 14.6067 18.2949C14.368 18.0543 14.1816 17.7669 14.0594 17.4508C13.937 17.1347 13.8814 16.7967 13.896 16.4581C13.881 16.1158 13.9377 15.7742 14.0626 15.4551C14.1874 15.136 14.3775 14.8465 14.6207 14.6053C14.864 14.364 15.155 14.1762 15.475 14.054C15.7951 13.9318 16.1372 13.8778 16.4793 13.8956C16.8181 13.8838 17.1556 13.9421 17.4707 14.067C17.7858 14.1919 18.0716 14.3806 18.3103 14.6212C18.549 14.8619 18.7353 15.1493 18.8576 15.4654C18.98 15.7815 19.0356 16.1194 19.021 16.4581C19.036 16.8004 18.9792 17.142 18.8544 17.461C18.7296 17.7801 18.5395 18.0696 18.2963 18.3109C18.053 18.5522 17.762 18.7399 17.442 18.8621C17.1219 18.9844 16.7798 19.0383 16.4377 19.0206ZM36.1252 36.1248H31.2502V27.9998C31.2502 26.0623 30.5627 24.729 28.8335 24.729C28.2964 24.7335 27.7737 24.9042 27.3375 25.2175C26.901 25.5308 26.5722 25.9715 26.396 26.479C26.2606 26.8594 26.2039 27.2633 26.2293 27.6665V36.1248H21.4377V21.2706H26.2293V23.354C26.6554 22.5713 27.2893 21.9217 28.0614 21.4767C28.8335 21.0319 29.7135 20.8091 30.6043 20.8331C33.7502 20.8331 36.1252 22.9165 36.1252 27.354V36.1248Z" fill="white"/>
</svg>
