<svg width="40" height="40" viewBox="0 0 40 40" fill="none" xmlns="http://www.w3.org/2000/svg">
<path fill-rule="evenodd" clip-rule="evenodd" d="M15.8271 11.8861C15.3112 11.5913 14.6775 11.5935 14.1636 11.8917C13.6498 12.1899 13.3335 12.7391 13.3335 13.3332V26.6665C13.3335 27.2607 13.6498 27.8098 14.1636 28.108C14.6775 28.4062 15.3112 28.4083 15.8271 28.1135L27.4937 21.4468C28.013 21.1502 28.3335 20.598 28.3335 19.9998C28.3335 19.4017 28.013 18.8495 27.4937 18.5528L15.8271 11.8861ZM23.3075 19.9998L16.6668 23.7945V16.2051L23.3075 19.9998Z" fill="white"/>
<path fill-rule="evenodd" clip-rule="evenodd" d="M0 20C0 13.7504 0 10.6257 1.59152 8.43512C2.10552 7.72767 2.72767 7.10552 3.43512 6.59152C5.62567 5 8.75045 5 15 5H25C31.2495 5 34.3743 5 36.5648 6.59152C37.2723 7.10552 37.8945 7.72767 38.4085 8.43512C40 10.6257 40 13.7504 40 20C40 26.2495 40 29.3743 38.4085 31.5648C37.8945 32.2723 37.2723 32.8945 36.5648 33.4085C34.3743 35 31.2495 35 25 35H15C8.75045 35 5.62567 35 3.43512 33.4085C2.72767 32.8945 2.10552 32.2723 1.59152 31.5648C0 29.3743 0 26.2495 0 20ZM15 8.33333H25C28.199 8.33333 30.3305 8.33792 31.9455 8.51288C33.4982 8.6811 34.1733 8.97413 34.6057 9.28825C35.03 9.59665 35.4033 9.96993 35.7118 10.3944C36.0258 10.8267 36.3188 11.5019 36.4872 13.0545C36.6622 14.6694 36.6667 16.801 36.6667 20C36.6667 23.199 36.6622 25.3305 36.4872 26.9455C36.3188 28.4982 36.0258 29.1733 35.7118 29.6057C35.4033 30.03 35.03 30.4033 34.6057 30.7118C34.1733 31.0258 33.4982 31.3188 31.9455 31.4872C30.3305 31.6622 28.199 31.6667 25 31.6667H15C11.801 31.6667 9.66945 31.6622 8.05448 31.4872C6.50188 31.3188 5.82675 31.0258 5.3944 30.7118C4.96993 30.4033 4.59665 30.03 4.28825 29.6057C3.97413 29.1733 3.6811 28.4982 3.51288 26.9455C3.33792 25.3305 3.33333 23.199 3.33333 20C3.33333 16.801 3.33792 14.6694 3.51288 13.0545C3.6811 11.5019 3.97413 10.8267 4.28825 10.3944C4.59665 9.96993 4.96993 9.59665 5.3944 9.28825C5.82675 8.97413 6.50188 8.6811 8.05448 8.51288C9.66945 8.33792 11.801 8.33333 15 8.33333Z" fill="white"/>
</svg>
